<svg xmlns="http://www.w3.org/2000/svg" viewBox="0 0 256 256" role="img" aria-label="Telegram">
  <defs>
    <linearGradient id="telegram-bg" x1="46" y1="20" x2="210" y2="230" gradientUnits="userSpaceOnUse">
      <stop offset="0" stop-color="#39bdf8"/>
      <stop offset="0.48" stop-color="#1d9bf0"/>
      <stop offset="1" stop-color="#1784d8"/>
    </linearGradient>
    <linearGradient id="telegram-shine" x1="52" y1="20" x2="120" y2="112" gradientUnits="userSpaceOnUse">
      <stop offset="0" stop-color="#fff" stop-opacity="0.52"/>
      <stop offset="1" stop-color="#fff" stop-opacity="0"/>
    </linearGradient>
    <filter id="plane-shadow" x="42" y="54" width="176" height="146" filterUnits="userSpaceOnUse" color-interpolation-filters="sRGB">
      <feDropShadow dx="0" dy="5" stdDeviation="7" flood-color="#0a5fa8" flood-opacity="0.25"/>
    </filter>
  </defs>
  <rect width="256" height="256" rx="58" fill="url(#telegram-bg)"/>
  <path d="M33 52c24-24 65-36 102-31 51 7 88 45 95 92 5 36-7 75-32 99 16-24 22-55 17-84-8-44-43-78-90-85-31-4-64 0-92 9Z" fill="url(#telegram-shine)"/>
  <path d="M199.5 72.6c2.3-1 4.9.9 4.4 3.4l-22.7 107.2c-.5 2.6-3.6 3.7-5.8 2.1l-34.1-25.3-16.7 16.1c-1.9 1.8-5.1.9-5.7-1.7l-8.8-35.8-33.3-11.2c-2.8-.9-3-4.8-.3-6.1l123-48.7Z" fill="#fff" filter="url(#plane-shadow)"/>
  <path d="M121.2 139.4 177 95.2c1.3-1 .1-3-1.4-2.2l-68.2 41.8 11.5 39.6 2.3-35Z" fill="#d8f0ff"/>
</svg>
