<svg xmlns="http://www.w3.org/2000/svg" viewBox="0 0 240 240" role="img" aria-labelledby="title desc">
  <title id="title">Shawn TikTok profile</title>
  <desc id="desc">TikTok style placeholder avatar for Shawn.</desc>
  <defs>
    <radialGradient id="bg" cx="30%" cy="18%" r="84%">
      <stop offset="0" stop-color="#fff"/>
      <stop offset="0.44" stop-color="#fbfcff"/>
      <stop offset="1" stop-color="#eef4ff"/>
    </radialGradient>
    <linearGradient id="ring" x1="34" y1="34" x2="206" y2="206">
      <stop offset="0" stop-color="#25f4ee"/>
      <stop offset="0.52" stop-color="#16181f"/>
      <stop offset="1" stop-color="#fe2c55"/>
    </linearGradient>
    <filter id="shadow" x="-20%" y="-20%" width="140%" height="140%">
      <feDropShadow dx="0" dy="14" stdDeviation="12" flood-color="#111" flood-opacity="0.12"/>
    </filter>
  </defs>
  <circle cx="120" cy="120" r="112" fill="url(#bg)"/>
  <circle cx="120" cy="120" r="102" fill="none" stroke="url(#ring)" stroke-width="8" opacity="0.95"/>
  <g filter="url(#shadow)">
    <circle cx="120" cy="106" r="46" fill="#111"/>
    <path d="M137 72c2 14 11 23 25 24v21c-10 0-18-3-25-8v40a40 40 0 1 1-35-39v22a19 19 0 1 0 14 17V72h21Z" fill="#fff"/>
    <path d="M137 72c2 14 11 23 25 24v21c-10 0-18-3-25-8v40a40 40 0 1 1-35-39v22a19 19 0 1 0 14 17V72h21Z" fill="none" stroke="#25f4ee" stroke-width="5" transform="translate(-4 0)" opacity="0.85"/>
    <path d="M137 72c2 14 11 23 25 24v21c-10 0-18-3-25-8v40a40 40 0 1 1-35-39v22a19 19 0 1 0 14 17V72h21Z" fill="none" stroke="#fe2c55" stroke-width="5" transform="translate(4 0)" opacity="0.75"/>
  </g>
  <text x="120" y="184" text-anchor="middle" font-family="Arial, Helvetica, sans-serif" font-size="26" font-weight="800" fill="#17191f">SHAWN</text>
  <text x="120" y="211" text-anchor="middle" font-family="Arial, Helvetica, sans-serif" font-size="14" font-weight="700" fill="#5f6673">@shawnnwjxnc</text>
</svg>
