<svg xmlns="http://www.w3.org/2000/svg" viewBox="0 0 240 240" role="img" aria-labelledby="title desc">
  <title id="title">Molly Adventure TikTok profile</title>
  <desc id="desc">TikTok style placeholder avatar for Molly Adventure.</desc>
  <defs>
    <radialGradient id="bg" cx="32%" cy="18%" r="82%">
      <stop offset="0" stop-color="#fff"/>
      <stop offset="0.45" stop-color="#fbfcff"/>
      <stop offset="1" stop-color="#eef4ff"/>
    </radialGradient>
    <linearGradient id="ring" x1="34" y1="34" x2="206" y2="206">
      <stop offset="0" stop-color="#25f4ee"/>
      <stop offset="0.5" stop-color="#12141b"/>
      <stop offset="1" stop-color="#fe2c55"/>
    </linearGradient>
    <filter id="shadow" x="-20%" y="-20%" width="140%" height="140%">
      <feDropShadow dx="0" dy="14" stdDeviation="12" flood-color="#111" flood-opacity="0.12"/>
    </filter>
  </defs>
  <circle cx="120" cy="120" r="112" fill="url(#bg)"/>
  <circle cx="120" cy="120" r="102" fill="none" stroke="url(#ring)" stroke-width="8" opacity="0.95"/>
  <g filter="url(#shadow)">
    <rect x="55" y="61" width="130" height="91" rx="34" fill="#111"/>
    <path d="M137 78c2 15 11 24 26 25v22c-10 0-19-3-26-8v42a41 41 0 1 1-36-40v22a20 20 0 1 0 15 18V78h21Z" fill="#fff"/>
    <path d="M137 78c2 15 11 24 26 25v22c-10 0-19-3-26-8v42a41 41 0 1 1-36-40v22a20 20 0 1 0 15 18V78h21Z" fill="none" stroke="#25f4ee" stroke-width="5" transform="translate(-4 0)" opacity="0.85"/>
    <path d="M137 78c2 15 11 24 26 25v22c-10 0-19-3-26-8v42a41 41 0 1 1-36-40v22a20 20 0 1 0 15 18V78h21Z" fill="none" stroke="#fe2c55" stroke-width="5" transform="translate(4 0)" opacity="0.75"/>
  </g>
  <text x="120" y="184" text-anchor="middle" font-family="Arial, Helvetica, sans-serif" font-size="23" font-weight="800" fill="#17191f">MOLLY</text>
  <text x="120" y="211" text-anchor="middle" font-family="Arial, Helvetica, sans-serif" font-size="14" font-weight="700" fill="#5f6673">@mollyadventure6</text>
</svg>
